<svg xmlns="http://www.w3.org/2000/svg" width="95" height="95" viewBox="0 0 95 95"><defs><style>.a{fill:none;}.b{fill:#e01b1a;}</style></defs><rect class="a" width="95" height="95"/><rect class="a" width="67.449" height="67.449" transform="translate(13.796 13.796)"/><g transform="translate(20 13.797)"><g transform="translate(6.817 0)"><path class="b" d="M289.922,2303.5a1.349,1.349,0,0,1-.156-.009l-22.5-2.647a1.322,1.322,0,0,1-1.169-1.314V2294.9a1.324,1.324,0,0,1,1.324-1.324h24.485a1.324,1.324,0,0,1,1.277,1.673l-1.985,7.279A1.324,1.324,0,0,1,289.922,2303.5Zm-21.178-5.147,20.2,2.376,1.23-4.509H268.744Z" transform="translate(-266.097 -2293.577)"/></g><g transform="translate(0 4.963)"><path class="b" d="M294.339,2363.059a22.007,22.007,0,0,1-5.273-.485c-1.231-.336-2.515-.809-3.875-1.311a40.256,40.256,0,0,0-9.82-2.622,47.588,47.588,0,0,0-5.442-.166c-4.411.027-8.969.062-11.891-2.86-3.522-3.521-2.038-8.866-1.241-10.461.808-1.616,2.838-6.863,2.838-9.666,0-1.006-.1-2.787-.221-5.042-.266-4.857-.668-12.2-.44-18.827a76.714,76.714,0,0,1,1.349-9.482,1.322,1.322,0,0,1,1.429-1.053l26.47,2.647a1.323,1.323,0,0,1,1.187,1.427,83.879,83.879,0,0,1-2.7,14.829c-1.652,5.51-4.241,12.451-5.066,14.63l5.363,7.149,12.974,7.785c.52.269,3.329,1.844,3.329,4.467v7.279a1.322,1.322,0,0,1-1.177,1.315C301.889,2362.638,298.048,2363.059,294.339,2363.059Zm-23.021-7.238a39.507,39.507,0,0,1,4.346.19,42.357,42.357,0,0,1,10.443,2.768c1.3.481,2.537.936,3.657,1.24,2.413.659,7.909.348,10.9.079v-6.081c0-.868-1.293-1.808-1.92-2.127-.027-.014-.058-.031-.085-.047l-13.235-7.941a1.32,1.32,0,0,1-.378-.341l-5.956-7.941a1.323,1.323,0,0,1-.177-1.269c.033-.086,3.314-8.634,5.262-15.125a79.428,79.428,0,0,0,2.465-12.994l-23.95-2.395a64.81,64.81,0,0,0-1.071,7.873c-.224,6.513.173,13.781.437,18.59.126,2.3.225,4.109.225,5.187,0,3.812-2.6,9.824-3.117,10.85-.469.938-1.717,4.943.744,7.406,2.139,2.139,5.956,2.112,10,2.084C270.376,2355.824,270.846,2355.821,271.318,2355.821Z" transform="translate(-255.796 -2301.076)"/></g><g transform="translate(44.868 57.191)"><path class="b" d="M329.553,2389.315h-4.632a1.324,1.324,0,0,1-1.324-1.323v-6.665a1.326,1.326,0,0,1,.392-.941,1.215,1.215,0,0,1,.945-.383l4.632.048c1.449,0,3.626,1.146,3.626,4.3a4.924,4.924,0,0,1-3.276,4.912A1.322,1.322,0,0,1,329.553,2389.315Zm-3.309-2.647h3.073a2.32,2.32,0,0,0,1.229-2.316c0-1.575-.826-1.655-.993-1.655l-3.309-.035Z" transform="translate(-323.597 -2380)"/></g><g transform="translate(3.124 7.61)"><path class="b" d="M262.266,2331.844a1.324,1.324,0,0,1-.377-2.593l19.836-5.9-20.274-6.253a1.323,1.323,0,0,1-.035-2.518l27.847-9.429a1.324,1.324,0,0,1,.849,2.507l-23.971,8.116,20.538,6.334a1.323,1.323,0,0,1-.013,2.533l-24.023,7.15A1.322,1.322,0,0,1,262.266,2331.844Z" transform="translate(-260.518 -2305.077)"/></g><g transform="translate(3.549 31.73)"><path class="b" d="M267.734,2371.339a1.324,1.324,0,0,1-1.105-2.05l12.935-19.71-17.476-5.467a1.324,1.324,0,0,1,.79-2.528l19.149,5.991a1.324,1.324,0,0,1,.711,1.99l-13.9,21.177A1.322,1.322,0,0,1,267.734,2371.339Z" transform="translate(-261.159 -2341.526)"/></g><g transform="translate(3.124 42.207)"><path class="b" d="M274.9,2365.444a1.333,1.333,0,0,1-.508-.1l-13.06-5.439a1.324,1.324,0,0,1,1.018-2.444l13.06,5.439a1.324,1.324,0,0,1-.51,2.546Z" transform="translate(-260.518 -2357.357)"/></g><g transform="translate(18.066 47.646)"><path class="b" d="M296.332,2383.69a1.325,1.325,0,0,1-1.319-1.437l1.038-12.129-10.746,9.67a1.323,1.323,0,1,1-1.771-1.967l13.235-11.912a1.323,1.323,0,0,1,2.2,1.1l-1.037,12.114,8.921-8.079a1.323,1.323,0,1,1,1.777,1.962l-11.415,10.338A1.324,1.324,0,0,1,296.332,2383.69Z" transform="translate(-283.097 -2365.576)"/></g></g></svg>