<svg xmlns="http://www.w3.org/2000/svg" width="95" height="95" viewBox="0 0 95 95"><defs><style>.a{fill:none;}.b{fill:#e01b1a;}</style></defs><g transform="translate(0.33)"><rect class="a" width="95" height="95" transform="translate(-0.33)"/><rect class="a" width="67.449" height="67.449" transform="translate(15.799 13.796)"/><g transform="translate(6.67 22)"><g transform="translate(0 22.601)"><path class="b" d="M429.695,2366.368a15.941,15.941,0,1,1,15.941-15.94A15.958,15.958,0,0,1,429.695,2366.368Zm0-29.07a13.13,13.13,0,1,0,13.13,13.13A13.144,13.144,0,0,0,429.695,2337.3Z" transform="translate(-413.755 -2334.487)"/></g><g transform="translate(48.216 22.601)"><path class="b" d="M498.321,2366.368a15.941,15.941,0,1,1,15.94-15.94A15.958,15.958,0,0,1,498.321,2366.368Zm0-29.07a13.13,13.13,0,1,0,13.13,13.13A13.145,13.145,0,0,0,498.321,2337.3Z" transform="translate(-482.38 -2334.487)"/></g><g transform="translate(70.961 31.898)"><path class="b" d="M517.127,2358.61a1.409,1.409,0,0,1-1.357-1.773,9.485,9.485,0,0,0-.844-7.033,1.405,1.405,0,0,1,2.461-1.359,12.3,12.3,0,0,1,1.1,9.126A1.406,1.406,0,0,1,517.127,2358.61Z" transform="translate(-514.751 -2347.719)"/></g><g transform="translate(34.301 32.794)"><path class="b" d="M468.322,2360.49a5.747,5.747,0,1,1,5.747-5.747A5.753,5.753,0,0,1,468.322,2360.49Zm0-8.684a2.937,2.937,0,1,0,2.937,2.937A2.94,2.94,0,0,0,468.322,2351.806Z" transform="translate(-462.575 -2348.995)"/></g><g transform="translate(46.895 2.606)"><path class="b" d="M497.543,2343.374a1.405,1.405,0,0,1-1.28-.826l-15.638-34.534a1.4,1.4,0,0,1,1.28-1.984H492.33c1.612,0,4.012,1.242,4.012,4.664a4.687,4.687,0,0,1-4.989,4.989,1.405,1.405,0,0,1,0-2.811c2.179,0,2.179-1.583,2.179-2.178,0-1.563-.771-1.832-1.231-1.854h-8.216l14.739,32.548a1.406,1.406,0,0,1-1.279,1.986Z" transform="translate(-480.5 -2306.029)"/></g><g transform="translate(14.316 11.728)"><path class="b" d="M455.083,2347.234H435.536a1.406,1.406,0,0,1-1.263-2.021l12.38-25.411a1.4,1.4,0,0,1,1.263-.79h24.329a1.405,1.405,0,0,1,1.275,2l-9.995,21.5a1.405,1.405,0,1,1-2.548-1.185l9.066-19.5H448.794l-11.01,22.6h17.3a1.405,1.405,0,0,1,0,2.811Z" transform="translate(-434.131 -2319.013)"/></g><g transform="translate(23.438 5.212)"><path class="b" d="M461.552,2340.567a1.406,1.406,0,0,1-1.275-.812l-13.031-28.018a1.405,1.405,0,1,1,2.548-1.185l13.031,28.017a1.4,1.4,0,0,1-1.273,2Z" transform="translate(-447.114 -2309.739)"/></g><g transform="translate(16.923)"><path class="b" d="M449.019,2310.343h-7.167a4.011,4.011,0,0,1,0-8.023c.043,0,.085,0,.127.006l7.108.647c2.326.026,3.943,1.4,3.943,3.359A4.016,4.016,0,0,1,449.019,2310.343Zm-7.219-5.211a1.2,1.2,0,0,0,.051,2.4h7.167a1.2,1.2,0,0,0,1.2-1.2c0-.533-1.078-.549-1.2-.549-.043,0-.085,0-.127-.006Z" transform="translate(-437.841 -2302.32)"/></g><g transform="translate(5.032 33.3)"><path class="b" d="M424.441,2362.971a1.4,1.4,0,0,1-1.132-.57,12.278,12.278,0,0,1-1.53-11.8,1.405,1.405,0,1,1,2.612,1.037,9.466,9.466,0,0,0,1.179,9.092,1.405,1.405,0,0,1-1.129,2.24Z" transform="translate(-420.917 -2349.716)"/></g></g></g></svg>