<svg xmlns="http://www.w3.org/2000/svg" width="95" height="95" viewBox="0 0 95 95"><defs><style>.a{fill:none;}.b{fill:#e01b1a;}</style></defs><g transform="translate(-0.066)"><rect class="a" width="95" height="95" transform="translate(0.066)"/><rect class="a" width="67.449" height="67.449" transform="translate(13.734 13.796)"/><g transform="translate(3.066 29)"><g transform="translate(18.404 4.347)"><g transform="translate(8.188)"><path class="b" d="M1849.845,2333.914h-41.36a2.194,2.194,0,0,1-1.5-3.8l12.208-10.8a5.335,5.335,0,0,1,3.644-1.421h28.283a2.2,2.2,0,0,1,2.194,2.193v10.359A3.474,3.474,0,0,1,1849.845,2333.914Zm-38.939-3.112h38.939a.359.359,0,0,0,.358-.358V2321h-27.365a2.267,2.267,0,0,0-1.552.611Z" transform="translate(-1806.289 -2317.891)"/></g><g transform="translate(27.156)"><path class="b" d="M1832.228,2351.662a1.556,1.556,0,1,1,0-3.112,4.073,4.073,0,0,0,4.194-4.034v-25.071a1.556,1.556,0,0,1,3.112,0v25.071A7.15,7.15,0,0,1,1832.228,2351.662Z" transform="translate(-1830.672 -2317.891)"/></g><g transform="translate(25.242 17.437)"><path class="b" d="M1833.6,2343.418h-3.83a1.556,1.556,0,0,1,0-3.112h3.83a1.556,1.556,0,0,1,0,3.112Z" transform="translate(-1828.211 -2340.306)"/></g><g transform="translate(0 9.732)"><path class="b" d="M1797.319,2350.293a1.556,1.556,0,0,1-1.556-1.556v-8.7a13.292,13.292,0,0,1,2.392-7.628l.934-1.344a1.555,1.555,0,1,1,2.554,1.776l-.935,1.344a10.2,10.2,0,0,0-1.833,5.852v8.7A1.557,1.557,0,0,1,1797.319,2350.293Z" transform="translate(-1795.764 -2330.401)"/></g></g><g transform="translate(0.818 18.896)"><path class="b" d="M1778.679,2347.6h-3.965a1.556,1.556,0,0,1-1.556-1.556v-2.514a8.562,8.562,0,0,1,3.074-6.576,1.555,1.555,0,0,1,1.627-.231c3.725,1.645,5.615,3.691,5.615,6.081A4.8,4.8,0,0,1,1778.679,2347.6Zm-2.409-3.112h2.409a1.687,1.687,0,0,0,1.684-1.684c0-.86-1.013-1.852-2.814-2.783a5.448,5.448,0,0,0-1.279,3.51Z" transform="translate(-1773.158 -2336.593)"/></g><g transform="translate(78.11 17.426)"><g transform="translate(0 5.26)"><path class="b" d="M1880.032,2344.575h-5.963a1.556,1.556,0,1,1,0-3.111h5.963a1.556,1.556,0,1,1,0,3.111Z" transform="translate(-1872.513 -2341.464)"/></g><path class="b" d="M1880.032,2348.333h-3.591a3.933,3.933,0,0,1-3.929-3.929v-5.773a3.933,3.933,0,0,1,3.929-3.929h2.931a1.556,1.556,0,0,1,1.494,1.122,16.834,16.834,0,0,1,.674,4.565l.047,6.387A1.557,1.557,0,0,1,1880.032,2348.333Zm-3.591-10.518a.827.827,0,0,0-.817.817v5.773a.827.827,0,0,0,.817.817h2.027l-.039-4.8a13.625,13.625,0,0,0-.275-2.6Z" transform="translate(-1872.513 -2334.703)"/></g><g transform="translate(7.411 30.187)"><path class="b" d="M1791.174,2370.192a9.543,9.543,0,1,1,9.543-9.543A9.554,9.554,0,0,1,1791.174,2370.192Zm0-15.974a6.431,6.431,0,1,0,6.431,6.431A6.438,6.438,0,0,0,1791.174,2354.218Z" transform="translate(-1781.631 -2351.106)"/></g><g transform="translate(0 35.007)"><path class="b" d="M1781.237,2365.2h-5.481a3.655,3.655,0,0,1-3.651-3.65v-.6a3.655,3.655,0,0,1,3.651-3.65h5.972a1.556,1.556,0,0,1,1.428,2.174,6.362,6.362,0,0,0-.528,2.548,6.492,6.492,0,0,0,.133,1.308,1.555,1.555,0,0,1-1.524,1.868Zm-5.481-4.787a.539.539,0,0,0-.539.539v.6a.539.539,0,0,0,.539.539h3.76v-.064a9.5,9.5,0,0,1,.136-1.611Z" transform="translate(-1772.106 -2357.302)"/><g transform="translate(22.728)"><path class="b" d="M1843.793,2365.2h-40.424a1.555,1.555,0,0,1-1.524-1.87,6.5,6.5,0,0,0,.133-1.306,6.367,6.367,0,0,0-.528-2.548,1.555,1.555,0,0,1,1.428-2.174h41.407a1.555,1.555,0,0,1,1.428,2.174,6.381,6.381,0,0,0-.528,2.549,6.492,6.492,0,0,0,.133,1.306,1.555,1.555,0,0,1-1.524,1.87Zm-38.7-3.112h36.983v-.064a9.594,9.594,0,0,1,.136-1.611h-37.255a9.563,9.563,0,0,1,.136,1.611Z" transform="translate(-1801.321 -2357.302)"/><g transform="translate(56.068)"><path class="b" d="M1880.228,2365.2h-4.787a1.556,1.556,0,0,1-1.524-1.87,6.427,6.427,0,0,0-.394-3.854,1.555,1.555,0,0,1,1.427-2.174h5.277a3.654,3.654,0,0,1,3.65,3.65v.6A3.654,3.654,0,0,1,1880.228,2365.2Zm-3.066-3.112h3.066a.539.539,0,0,0,.538-.539v-.6a.538.538,0,0,0-.538-.539h-3.2a9.475,9.475,0,0,1,.136,1.611Z" transform="translate(-1873.395 -2357.302)"/></g></g></g><g transform="translate(12.391 35.168)"><path class="b" d="M1792.6,2366.634a4.562,4.562,0,1,1,4.564-4.563A4.568,4.568,0,0,1,1792.6,2366.634Zm0-6.013a1.451,1.451,0,1,0,1.452,1.45A1.452,1.452,0,0,0,1792.6,2360.621Z" transform="translate(-1788.034 -2357.509)"/></g><g transform="translate(63.479 30.187)"><path class="b" d="M1863.248,2370.192a9.543,9.543,0,1,1,9.542-9.543A9.554,9.554,0,0,1,1863.248,2370.192Zm0-15.974a6.431,6.431,0,1,0,6.43,6.431A6.438,6.438,0,0,0,1863.248,2354.218Z" transform="translate(-1853.705 -2351.106)"/></g><g transform="translate(0.818 0)"><path class="b" d="M1857.969,2350.421h-5.277a1.557,1.557,0,0,1-1.428-.938,6.429,6.429,0,0,0-11.806,0,1.555,1.555,0,0,1-1.427.937h-41.407a1.558,1.558,0,0,1-1.429-.938,6.427,6.427,0,0,0-11.8,0,1.558,1.558,0,0,1-1.428.938h-7.249a1.556,1.556,0,0,1-1.556-1.555v-10.727a8.588,8.588,0,0,1,8.577-8.578h6.816a6.75,6.75,0,0,0,4.36-1.6l15.925-13.5a9.106,9.106,0,0,1,5.883-2.158h29.012a8.614,8.614,0,0,1,7.744,4.775l5.775,10.094a16.908,16.908,0,0,1,2.227,8.244h0l.046,5.735v7.715A1.556,1.556,0,0,1,1857.969,2350.421Zm-4.318-3.112h2.762v-6.146l-.047-5.722a13.791,13.791,0,0,0-1.816-6.724l-5.8-10.132c-.015-.026-.03-.053-.044-.082a5.521,5.521,0,0,0-4.977-3.088h-29.012a5.989,5.989,0,0,0-3.871,1.419l-15.925,13.5a9.861,9.861,0,0,1-6.372,2.338h-6.816a5.472,5.472,0,0,0-5.466,5.466v9.171H1781a9.539,9.539,0,0,1,16.58,0h39.487a9.54,9.54,0,0,1,16.581,0Z" transform="translate(-1773.158 -2312.303)"/></g><g transform="translate(68.458 35.168)"><path class="b" d="M1864.669,2366.634a4.562,4.562,0,1,1,4.562-4.563A4.568,4.568,0,0,1,1864.669,2366.634Zm0-6.013a1.451,1.451,0,1,0,1.45,1.45A1.453,1.453,0,0,0,1864.669,2360.621Z" transform="translate(-1860.106 -2357.509)"/></g></g></g></svg>