<svg xmlns="http://www.w3.org/2000/svg" width="95" height="95" viewBox="0 0 95 95"><defs><style>.a{fill:none;}.b{fill:#e01b1a;}</style></defs><g transform="translate(-16454.742 -9935.676)"><rect class="a" width="95" height="95" transform="translate(16454.742 9935.676)"/><rect class="a" width="67.421" height="67.421" transform="translate(16468.531 9949.468)"/><g transform="translate(16466.742 9953.28)"><g transform="translate(0.291 55.901)"><path class="b" d="M819.066,2388.672H754.5a3.036,3.036,0,0,1-3.032-3.033v-.8a3.035,3.035,0,0,1,3.032-3.032h64.564a3.036,3.036,0,0,1,3.032,3.032v.8A3.036,3.036,0,0,1,819.066,2388.672ZM754.5,2384.3a.535.535,0,0,0-.533.534v.8a.535.535,0,0,0,.533.534h64.564a.535.535,0,0,0,.533-.534v-.8a.535.535,0,0,0-.533-.534Z" transform="translate(-751.47 -2381.806)"/></g><g transform="translate(2.329 23.293)"><path class="b" d="M755.981,2364.709a1.25,1.25,0,0,1-1.249-1.249v-32.608a1.249,1.249,0,1,1,2.5,0v32.608A1.249,1.249,0,0,1,755.981,2364.709Z" transform="translate(-754.732 -2329.603)"/></g><g transform="translate(66.382 23.293)"><path class="b" d="M858.524,2364.709a1.25,1.25,0,0,1-1.249-1.249v-32.608a1.249,1.249,0,1,1,2.5,0v32.608A1.249,1.249,0,0,1,858.524,2364.709Z" transform="translate(-857.275 -2329.603)"/></g><g transform="translate(26.203 33.397)"><path class="b" d="M810.507,2370.746a1.249,1.249,0,0,1-1.249-1.25v-20.478a.741.741,0,0,0-.74-.74H796.191a.741.741,0,0,0-.74.74V2369.5a1.249,1.249,0,1,1-2.5,0v-20.478a3.241,3.241,0,0,1,3.238-3.238h12.326a3.242,3.242,0,0,1,3.239,3.238V2369.5A1.249,1.249,0,0,1,810.507,2370.746Z" transform="translate(-792.953 -2345.78)"/></g><g transform="translate(6.803 34.356)"><path class="b" d="M775.66,2364.079H764.6a2.712,2.712,0,0,1-2.708-2.709v-11.347a2.712,2.712,0,0,1,2.708-2.709H775.66a2.712,2.712,0,0,1,2.708,2.709v11.347A2.712,2.712,0,0,1,775.66,2364.079ZM764.6,2349.813a.211.211,0,0,0-.21.21v11.347a.21.21,0,0,0,.21.21H775.66a.21.21,0,0,0,.21-.21v-11.347a.211.211,0,0,0-.21-.21Z" transform="translate(-761.895 -2347.314)"/></g><g transform="translate(46.982 34.356)"><path class="b" d="M839.982,2364.079H828.926a2.712,2.712,0,0,1-2.709-2.709v-11.347a2.712,2.712,0,0,1,2.709-2.709h11.056a2.712,2.712,0,0,1,2.708,2.709v11.347A2.712,2.712,0,0,1,839.982,2364.079Zm-11.056-14.266a.211.211,0,0,0-.211.21v11.347a.21.21,0,0,0,.211.21h11.056a.21.21,0,0,0,.21-.21v-11.347a.211.211,0,0,0-.21-.21Z" transform="translate(-826.217 -2347.314)"/></g><g transform="translate(26.601 44.632)"><path class="b" d="M798.334,2366.263h-3.494a1.249,1.249,0,1,1,0-2.5h3.494a1.249,1.249,0,0,1,0,2.5Z" transform="translate(-793.59 -2363.765)"/></g><g transform="translate(30.463 19.983)"><path class="b" d="M804.915,2334.587a5.141,5.141,0,1,1,5.141-5.141A5.147,5.147,0,0,1,804.915,2334.587Zm0-7.783a2.642,2.642,0,1,0,2.642,2.642A2.645,2.645,0,0,0,804.915,2326.8Z" transform="translate(-799.773 -2324.305)"/></g><g transform="translate(3.601 0)"><path class="b" d="M819.526,2313.447a1.249,1.249,0,0,1-1.172-.818l-6.177-16.729a1.669,1.669,0,0,0-1.559-1.087H766.927a1.669,1.669,0,0,0-1.56,1.087l-6.177,16.729a1.249,1.249,0,1,1-2.344-.865l6.177-16.73a4.177,4.177,0,0,1,3.9-2.72h43.692a4.176,4.176,0,0,1,3.9,2.72l6.177,16.73a1.25,1.25,0,0,1-1.172,1.682Z" transform="translate(-756.768 -2292.313)"/></g><g transform="translate(0 7.172)"><path class="b" d="M818.635,2322.415H800.021a3.6,3.6,0,0,1-2.552-1.07l-9.861-10.03a1.077,1.077,0,0,0-.769-.323h0a1.073,1.073,0,0,0-.767.32l-9.97,10.045a3.6,3.6,0,0,1-2.54,1.058H754.682a3.662,3.662,0,0,1-3.662-3.231,3.579,3.579,0,0,1,3.562-3.926h17.494l9.426-9.317a7.961,7.961,0,0,1,10.929.054l9.09,9.263h17.013a3.663,3.663,0,0,1,3.663,3.23,3.58,3.58,0,0,1-3.562,3.927Zm-31.8-13.922h.009a3.559,3.559,0,0,1,2.544,1.07l9.861,10.03a1.088,1.088,0,0,0,.771.323h18.614a1.081,1.081,0,0,0,1.074-1.191,1.144,1.144,0,0,0-1.175-.969H801a1.249,1.249,0,0,1-.892-.375l-9.429-9.61a5.445,5.445,0,0,0-7.445-.028l-9.763,9.652a1.251,1.251,0,0,1-.878.361H754.582a1.079,1.079,0,0,0-1.074,1.19,1.144,1.144,0,0,0,1.174.97H773.56a1.087,1.087,0,0,0,.766-.319l9.971-10.046A3.554,3.554,0,0,1,786.836,2308.493Z" transform="translate(-751.004 -2303.795)"/></g><g transform="translate(13.79 34.356)"><path class="b" d="M774.33,2363.788a1.25,1.25,0,0,1-1.249-1.249v-13.976a1.249,1.249,0,1,1,2.5,0v13.976A1.25,1.25,0,0,1,774.33,2363.788Z" transform="translate(-773.081 -2347.314)"/></g><g transform="translate(6.803 41.344)"><path class="b" d="M777.119,2361H763.144a1.25,1.25,0,0,1,0-2.5h13.975a1.25,1.25,0,0,1,0,2.5Z" transform="translate(-761.895 -2358.5)"/></g><g transform="translate(53.969 34.356)"><path class="b" d="M838.652,2363.788a1.25,1.25,0,0,1-1.249-1.249v-13.976a1.249,1.249,0,0,1,2.5,0v13.976A1.25,1.25,0,0,1,838.652,2363.788Z" transform="translate(-837.403 -2347.314)"/></g><g transform="translate(46.982 41.344)"><path class="b" d="M841.442,2361H827.466a1.25,1.25,0,0,1,0-2.5h13.975a1.25,1.25,0,0,1,0,2.5Z" transform="translate(-826.217 -2358.5)"/></g></g></g></svg>