<svg width="92" height="91" viewBox="0 0 92 91" fill="none" xmlns="http://www.w3.org/2000/svg">
<g clip-path="url(#clip0_1477_97893)">
<path d="M82.2644 36.7372C81.9415 38.2303 81.6314 39.7298 81.2959 41.2166C80.5299 44.624 78.8652 47.5975 76.8459 50.386C73.3201 55.2483 69.0474 59.3959 64.5278 63.2947C59.3499 67.7613 53.8555 71.7941 48.1585 75.5588C47.3546 76.0885 46.6393 76.1395 45.8228 75.5971C38.1065 70.5115 30.8017 64.9027 24.149 58.4579C23.4527 57.7879 22.788 57.086 22.117 56.3905C21.3005 55.5418 21.2245 54.6421 21.9018 53.9466C22.5538 53.2702 23.4906 53.3531 24.3325 54.1316C27.3013 56.8818 30.2067 59.7086 33.2704 62.3567C37.4609 65.981 41.9615 69.1907 46.5507 72.279C46.8925 72.5087 47.1014 72.4705 47.4116 72.2599C54.7227 67.2955 61.7553 61.9802 68.0409 55.7269C71.4085 52.3769 74.6241 48.8673 76.7193 44.5474C79.2576 39.3151 80.1185 33.8721 77.7764 28.3143C75.3394 22.5268 71.0097 18.9024 64.8633 17.7474C58.5207 16.5606 53.1085 18.4813 48.6776 23.2095C48.532 23.3627 48.3927 23.5222 48.2471 23.6753C47.4116 24.5368 46.5444 24.5113 45.6772 23.6881C44.5568 22.6161 43.4807 21.4675 42.2273 20.5742C38.1445 17.6709 33.5996 16.7839 28.7129 17.7794C21.2815 19.298 15.7744 25.411 14.9199 33.0681C14.4325 37.4072 15.5845 41.4016 17.5848 45.1919C17.6734 45.3642 17.9772 45.5237 18.1861 45.5237C21.4271 45.5429 24.6617 45.5492 27.9026 45.5237C28.1305 45.5237 28.4407 45.2812 28.5736 45.0643C29.5484 43.4754 30.4789 41.8611 31.4347 40.2594C32.3779 38.6642 33.6186 38.6514 34.6314 40.2211C36.2139 42.6778 37.7964 45.1409 39.3788 47.5975C39.5181 47.8145 39.6637 48.0187 39.8789 48.3313C40.0055 48.0059 40.0941 47.7698 40.1828 47.5401C42.0564 42.4481 43.9238 37.3561 45.7974 32.2641C45.8734 32.0663 45.943 31.8621 46.0253 31.6707C46.3038 30.9943 46.7849 30.5987 47.5318 30.6051C48.2788 30.6051 48.7662 31.0198 49.0194 31.6962C49.6904 33.4829 50.3487 35.2823 51.0133 37.069C51.9881 39.7043 52.9756 42.3269 53.9251 44.9686C54.0897 45.428 54.2986 45.562 54.7733 45.562C57.4952 45.5365 60.2171 45.5492 62.939 45.5492C63.6353 45.5492 64.2429 45.7151 64.6164 46.3724C65.1481 47.3104 64.6038 48.4845 63.553 48.6695C63.2998 48.7142 63.0403 48.7206 62.7807 48.7206C59.6854 48.7206 56.5837 48.7206 53.4883 48.7206C52.2223 48.7206 51.8552 48.459 51.4058 47.2466C50.2094 44.0178 49.0131 40.7891 47.8167 37.5539C47.7407 37.3433 47.6521 37.1392 47.5192 36.8201C47.3862 37.1392 47.2913 37.3433 47.209 37.5603C45.4556 42.346 43.7085 47.1317 41.9551 51.9174C41.8665 52.1599 41.7779 52.4088 41.6576 52.6385C41.1069 53.6658 39.8283 53.8062 39.0687 52.9129C38.8092 52.6066 38.6066 52.2556 38.3914 51.9238C36.7709 49.4033 35.1504 46.8892 33.53 44.3688C33.4034 44.1773 33.2704 43.9859 33.0805 43.7115C32.3146 45.0069 31.5487 46.2065 30.8714 47.4635C30.3586 48.4143 29.656 48.7652 28.5926 48.7525C23.1741 48.7142 17.7494 48.7397 12.3309 48.7333C10.9257 48.7206 10.1724 48.159 10.1724 47.1381C10.1724 46.1108 10.932 45.5429 12.3183 45.5429C12.8943 45.5429 13.4766 45.5429 14.002 45.5429C13.4513 43.7945 12.869 42.1035 12.3816 40.3871C9.40014 29.8521 15.6478 18.2962 26.0669 15.1823C33.0805 13.083 39.5054 14.3719 45.291 18.8833C45.8607 19.3299 46.3798 19.8468 46.9305 20.3445C47.6774 19.7128 48.3674 19.0747 49.108 18.5132C56.9951 12.5789 67.275 12.7639 74.8583 19.0874C79.112 22.6353 81.4984 27.2678 82.1251 32.8065C82.1441 32.9852 82.2137 33.1638 82.258 33.3425V36.7499L82.2644 36.7372Z" fill="#E01B1A"/>
</g>
<defs>
<clipPath id="clip0_1477_97893">
<rect width="72.092" height="61.7931" fill="white" transform="translate(10.1724 14.1797)"/>
</clipPath>
</defs>
</svg>
